<svg width="1956" height="2080" viewBox="0 0 1956 2080" fill="none" xmlns="http://www.w3.org/2000/svg">
    <g id="Desktop - 1" clip-path="url(#clip0_1_2)">
        <path id="Vector 1" d="M547.5 253.5V795" stroke="#9FE8FF" stroke-width="100" stroke-linecap="round"/>
        <path id="Vector 2" d="M672 151V820.5" stroke="#9FE8FF" stroke-width="162" stroke-linecap="round"/>
        <path id="Vector 3" d="M785 174V794.5" stroke="#9FE8FF" stroke-width="70" stroke-linecap="round"/>
        <path id="Vector 4" d="M226 744.5L226 203" stroke="#9FE8FF" stroke-width="100" stroke-linecap="round"/>
        <path id="Vector 5" d="M354.5 844.5L354.5 175" stroke="#9FE8FF" stroke-width="162" stroke-linecap="round"/>
        <path id="Vector 6" d="M466 924.5L466 304" stroke="#9FE8FF" stroke-width="70" stroke-linecap="round"/>
        <path id="Vector 13" d="M144.5 253.5V795" stroke="#9FE8FF" stroke-width="100" stroke-linecap="round"/>
        <path id="Vector 15" d="M-48.5 844.5L-48.5 175" stroke="#9FE8FF" stroke-width="162" stroke-linecap="round"/>
        <path id="Vector 16" d="M63 924.5L63 304" stroke="#9FE8FF" stroke-width="70" stroke-linecap="round"/>
        <path id="Vector 7" d="M1188.5 329.5V871" stroke="#9FE8FF" stroke-width="100" stroke-linecap="round"/>
        <path id="Vector 8" d="M1294 139V808.5" stroke="#9FE8FF" stroke-width="181" stroke-linecap="round"/>
        <path id="Vector 9" d="M1406 240V860.5" stroke="#9FE8FF" stroke-width="70" stroke-linecap="round"/>
        <path id="Vector 10" d="M867 820.5L867 279" stroke="#9FE8FF" stroke-width="100" stroke-linecap="round"/>
        <path id="Vector 11" d="M995.5 920.5L995.5 251" stroke="#9FE8FF" stroke-width="162" stroke-linecap="round"/>
        <path id="Vector 12" d="M1109 771.5V151" stroke="#9FE8FF" stroke-width="70" stroke-linecap="round"/>
        <path id="Vector 17" d="M785 174V794.5" stroke="#9FE8FF" stroke-width="70" stroke-linecap="round"/>
        <path id="Vector 18" d="M1188.5 329.5V871" stroke="#9FE8FF" stroke-width="100" stroke-linecap="round"/>
        <path id="Vector 19" d="M867 820.5L867 279" stroke="#9FE8FF" stroke-width="100" stroke-linecap="round"/>
        <path id="Vector 20" d="M995.5 920.5L995.5 251" stroke="#9FE8FF" stroke-width="162" stroke-linecap="round"/>
        <path id="Vector 21" d="M1109 771.5V151" stroke="#9FE8FF" stroke-width="70" stroke-linecap="round"/>
        <rect id="Rectangle 1" x="-43" y="536" width="2051" height="1409" fill="#9FE8FF"/>
        <path id="Vector 22" d="M1803.5 353.5V895" stroke="#9FE8FF" stroke-width="100" stroke-linecap="round"/>
        <path id="Vector 23" d="M1482 844.5V303" stroke="#9FE8FF" stroke-width="100" stroke-linecap="round"/>
        <path id="Vector 24" d="M1610.5 944.5V275" stroke="#9FE8FF" stroke-width="162" stroke-linecap="round"/>
        <path id="Vector 25" d="M1724 795.5V175" stroke="#9FE8FF" stroke-width="70" stroke-linecap="round"/>
        <path id="Vector 26" d="M1803.5 353.5V895" stroke="#9FE8FF" stroke-width="100" stroke-linecap="round"/>
        <path id="Vector 30" d="M1904 151V692.5" stroke="#9FE8FF" stroke-width="100" stroke-linecap="round"/>
        <path id="Vector 27" d="M1482 844.5V303" stroke="#9FE8FF" stroke-width="100" stroke-linecap="round"/>
        <path id="Vector 28" d="M1610.5 944.5V275" stroke="#9FE8FF" stroke-width="162" stroke-linecap="round"/>
        <path id="Vector 29" d="M1724 795.5V175" stroke="#9FE8FF" stroke-width="70" stroke-linecap="round"/>
    </g>
    <defs>
        <clipPath id="clip0_1_2">
        <rect width="1956" height="2080" fill="white"/>
        </clipPath>
    </defs>
</svg>
